<?xml version="1.0" standalone="no"?>
<!DOCTYPE svg PUBLIC "-//W3C//DTD SVG 20010904//EN"
 "http://www.w3.org/TR/2001/REC-SVG-20010904/DTD/svg10.dtd">
<svg version="1.0" xmlns="http://www.w3.org/2000/svg"
 width="564.000000pt" height="564.000000pt" viewBox="0 0 564.000000 564.000000"
 preserveAspectRatio="xMidYMid meet">
<metadata>
Created by potrace 1.16, written by Peter Selinger 2001-2019
</metadata>
<g transform="translate(0.000000,564.000000) scale(0.100000,-0.100000)"
fill="#000000" stroke="none">
<path d="M3559 5285 c-37 -20 -49 -62 -49 -169 0 -120 -8 -166 -29 -166 -33 0
-280 -90 -381 -138 -120 -58 -251 -138 -360 -220 -88 -67 -305 -281 -371 -367
-67 -87 -170 -251 -215 -344 l-39 -80 -105 -1 c-252 -1 -500 -57 -730 -166
-327 -155 -629 -457 -784 -784 -106 -225 -154 -424 -163 -675 -10 -307 43
-548 182 -824 103 -205 285 -427 455 -555 30 -22 57 -43 60 -46 3 -3 28 -20
56 -38 59 -37 103 -41 129 -12 26 28 25 89 -1 107 -271 192 -414 342 -542 568
-207 365 -249 829 -112 1235 131 388 424 716 794 890 223 105 386 142 649 145
124 2 192 7 202 15 7 6 41 66 74 133 171 347 411 607 744 807 153 91 365 176
539 215 42 9 83 24 90 32 10 12 12 52 10 156 l-4 139 24 -7 c47 -15 175 -79
228 -115 50 -34 96 -80 140 -138 15 -20 63 -35 930 -278 282 -80 283 -80 303
-113 56 -95 -27 -416 -152 -584 -75 -102 -75 -102 -466 -126 -429 -27 -606
-40 -626 -46 -37 -12 -39 -33 -42 -755 -3 -677 -4 -710 -25 -820 -29 -148 -71
-286 -134 -433 l-50 -117 47 -158 c110 -366 186 -712 189 -856 l1 -78 -43 -38
c-51 -46 -117 -70 -189 -70 -103 0 -137 28 -303 250 -99 132 -117 150 -150
150 -33 0 -53 -16 -110 -93 -228 -306 -694 -452 -1105 -346 -212 54 -423 186
-540 339 -156 202 -208 434 -149 665 36 140 153 325 262 412 26 21 49 40 52
43 3 3 34 24 70 47 120 77 276 133 425 154 65 9 92 18 107 33 27 30 21 83 -13
109 -25 18 -32 19 -115 7 -266 -37 -503 -155 -684 -339 -111 -113 -178 -218
-227 -357 -120 -346 -25 -709 257 -977 216 -206 509 -317 838 -317 339 0 634
116 855 336 43 43 81 73 86 68 4 -5 30 -38 57 -74 158 -210 216 -251 365 -258
108 -5 204 20 276 74 109 82 140 151 129 293 -14 169 -75 445 -176 796 l-50
173 51 125 c54 137 88 259 121 437 20 108 21 156 25 776 l5 661 111 7 c739 44
786 49 847 82 172 94 323 400 337 685 5 101 3 121 -14 160 -24 54 -66 105
-102 123 -22 12 -333 101 -1046 302 -114 32 -122 36 -159 79 -50 59 -141 124
-247 176 -174 86 -261 106 -320 74z"/>
<path d="M4090 4544 c-43 -18 -100 -72 -100 -94 0 -25 70 -86 123 -105 60 -23
133 -15 193 20 40 23 74 59 74 77 0 18 -68 83 -105 99 -49 23 -137 24 -185 3z"/>
<path d="M2510 2160 c-30 -30 -27 -83 6 -109 36 -28 60 -26 95 8 35 36 37 64
4 96 -30 31 -77 33 -105 5z"/>
</g>
</svg>
